# xmcd
#
# Track frame offsets:
#	150
#	16587
#	32802
#	57549
#
# Disc length: 989 seconds
#
# Revision: 1
# Processed by: cddbd v1.5.2PL0 Copyright (c) Steve Scherf et al.
# Submitted via: audiograbber 1.83.01
#
DISCID=2903db04
DTITLE=Mark Ronson - Valerie
DYEAR=2007
DGENRE=Pop
TTITLE0=Valerie Feat. Amy Winehouse - Valerie Feat. Amy Winehouse
TTITLE1=Valerie Feat. Amy Winehouse (Baby J Remix Feat. Rukus, Precha, Alex Blo
TTITLE1=od And Malik) - Valerie Feat. Amy Winehouse (Baby J Remix Feat. Rukus, 
TTITLE1=Precha, Alex Blood And Malik)
TTITLE2=Valerie Feat. Amy Winehouse (Count Of Monte Cristal and Sinden Remix) - V
TTITLE2=alerie Feat. Amy Winehouse (Count Of Monte Cristal and Sinden Remix)
TTITLE3=California Feat. Alex Greenwald (Live) - California Feat. Alex Greenwal
TTITLE3=d (Live)
EXTD=http://fedion.jouwpagina.nl
EXTT0=
EXTT1=
EXTT2=
EXTT3=
PLAYORDER=
